<?xml version="1.0" encoding="UTF-8"?> <svg xmlns="http://www.w3.org/2000/svg" width="99" height="60" viewBox="0 0 99 60" fill="none"><path d="M51.1343 9.72418H43.8716V7.68553C43.8716 6.92103 43.2345 6.28395 42.47 6.28395H36.7363C35.9718 6.28395 35.3348 6.92103 35.3348 7.68553V9.72418H28.0721V6.41137C28.0721 3.35339 30.493 0.932492 33.5509 0.932492H45.4006C48.4586 0.932492 50.8795 3.35339 50.8795 6.41137L51.1343 9.72418ZM28.1995 11.6354V19.79C28.1995 20.1723 28.4543 20.4271 28.8365 20.4271H34.6977C35.0799 20.4271 35.3348 20.1723 35.3348 19.79V16.095H43.7442V19.79C43.7442 20.1723 43.999 20.4271 44.3813 20.4271H50.2424C50.6246 20.4271 50.8795 20.1723 50.8795 19.79V11.6354H50.7521H28.1995ZM75.5981 6.28395V7.30328C75.5981 10.3613 78.019 12.7822 81.077 12.7822H89.4865C90.3784 12.7822 91.0154 13.4192 91.0154 14.3112C91.0154 15.2031 90.3784 15.8401 89.4865 15.8401H83.4979C83.1157 15.8401 82.8608 15.5853 82.8608 15.2031C82.8608 14.8208 82.606 14.566 82.2238 14.566H76.7449C76.3626 14.566 76.1078 14.8208 76.1078 15.2031V16.2224C76.1078 18.5159 78.019 20.2997 80.1851 20.2997H92.9267C95.9847 20.2997 98.4056 17.8788 98.4056 14.8208V13.8015C98.4056 10.7435 95.9847 8.32261 92.9267 8.32261H84.5172C83.6253 8.32261 82.9883 7.68553 82.9883 6.79362C82.9883 5.90171 83.6253 5.26463 84.5172 5.26463H90.1235C90.5058 5.26463 90.7606 5.51946 90.7606 5.9017C90.7606 6.28395 91.0154 6.53878 91.3977 6.53878H96.8766C97.2588 6.53878 97.5137 6.28395 97.5137 5.9017V4.88238C97.5137 2.5889 95.6024 0.805073 93.4363 0.805073H81.2044C78.1465 0.805073 75.5981 3.22597 75.5981 6.28395ZM18.261 0.29541H8.95968C4.2453 0.29541 0.29541 4.11789 0.29541 8.95969V12.3999C0.29541 17.1143 4.11788 21.0642 8.95968 21.0642H18.261C22.9754 21.0642 26.9253 17.2417 26.9253 12.3999V8.95969C26.7979 4.11789 22.9754 0.29541 18.261 0.29541ZM24.1222 11.6354L18.5159 13.6741C17.8788 13.9289 17.2417 14.0563 16.6046 14.0563H6.15654C5.26463 14.0563 4.62755 13.2918 4.75496 12.3999L5.51946 8.45002C5.64687 7.81294 6.15654 7.30328 6.92103 7.30328H15.9676C17.3691 7.30328 18.8981 7.55811 20.1723 8.19519L23.9947 9.72418V11.6354H24.1222ZM74.5788 6.28395V4.2453C74.5788 2.33406 73.0498 0.805073 71.1386 0.805073H53.4278C53.0455 0.805073 52.7907 1.0599 52.7907 1.44215V9.59676H60.0534V6.41137H66.2968C67.0613 6.41137 67.6984 7.04845 67.6984 7.81294V9.59676H71.266C73.0498 9.72418 74.5788 8.19519 74.5788 6.28395ZM52.6633 11.6354V19.79C52.6633 20.1723 52.9181 20.4271 53.3004 20.4271H59.1615C59.5438 20.4271 59.7986 20.1723 59.7986 19.79V16.095H65.0226C66.5516 16.095 67.8258 17.3691 67.8258 18.8981V19.79C67.8258 20.1723 68.0806 20.4271 68.4629 20.4271H74.1966C74.5788 20.4271 74.8336 20.1723 74.8336 19.79V17.1143C74.8336 14.0563 72.4127 11.6354 69.3548 11.6354H52.6633Z" fill="#000F5A"></path><path d="M48.9629 27.5626C48.9629 27.69 48.9629 27.8174 48.8355 27.9449C48.5807 28.0723 48.3259 28.1997 48.071 28.1997C47.5614 28.3271 46.9243 28.4545 46.4146 28.5819C45.2679 28.8368 44.1211 28.9642 42.9744 29.0916C40.6809 29.3464 38.26 29.6013 35.8391 29.8561C31.1247 30.2383 26.2829 30.6206 21.5686 31.1302C16.8542 31.6399 12.0124 32.1496 7.29798 32.9141C5.64158 33.1689 2.5836 33.6786 1.30944 33.9334C0.927195 33.9334 0.672363 33.6786 0.672363 33.4237V26.4159C0.672363 26.0336 1.05461 25.6514 1.43686 25.6514H46.7969C47.6888 25.6514 48.5807 26.2884 48.8355 27.1804L48.9629 27.5626ZM96.7439 25.7788C96.6164 25.7788 96.489 25.7788 96.2342 25.7788C93.0488 25.7788 86.8054 29.219 86.0409 32.1496C86.0409 32.4044 86.0409 32.5318 86.1684 32.6592C86.2958 32.7867 86.4232 33.0415 86.8054 33.1689C87.3151 33.5511 88.0796 33.806 88.7167 33.9334C90.1182 34.3156 91.7746 34.5705 93.3036 34.6979C94.5778 34.8253 95.7245 34.9527 96.9987 34.9527C97.1261 34.9527 97.2535 34.9527 97.3809 34.9527C97.7632 34.9527 98.1454 34.5705 98.1454 34.1882V33.5511V29.6013V26.9255C98.018 26.2884 97.5083 25.7788 96.7439 25.7788Z" fill="#9C182F"></path><path d="M79.5481 37.756C79.2932 38.2657 78.911 38.5205 78.6562 38.7753C78.0191 39.285 77.382 39.7947 76.8723 40.1769C75.9804 40.9414 76.2353 41.4511 76.6175 41.7059C76.8723 41.9607 77.1272 42.0882 77.382 42.2156C78.0191 42.5978 78.6562 42.8527 79.2932 43.1075C80.6948 43.6171 82.0964 43.9994 83.6254 44.3816C86.5559 45.0187 89.4865 45.6558 92.5445 46.038C94.0735 46.2929 95.6024 46.4203 97.1314 46.6751C97.6411 46.6751 98.0233 46.4203 98.0233 45.9106C98.0233 43.9994 98.0233 39.6673 98.0233 37.8834C98.0233 37.5012 97.7685 37.1189 97.2589 37.1189C97.1314 37.1189 96.8766 37.1189 96.7492 37.1189C95.475 36.9915 94.2009 36.8641 92.7993 36.7367C91.1429 36.4819 89.6139 36.227 87.9575 35.7174C87.193 35.4625 86.3011 35.2077 85.5366 34.5706C85.1544 34.3158 84.7721 33.9335 84.3899 33.4239C84.2624 33.1691 84.135 32.7868 84.135 32.532C84.135 32.1497 84.135 31.8949 84.2624 31.6401C84.3899 31.1304 84.7721 30.6207 85.0269 30.2385C85.2818 29.9837 85.0269 29.474 84.6447 29.474H49.6053C49.4779 29.474 49.4779 29.474 49.4779 29.3466L49.3505 28.9643C49.3505 28.8369 49.2231 28.8369 49.0957 28.8369C48.8408 28.9643 48.586 29.0917 48.3312 29.2192C47.6941 29.474 47.1844 29.6014 46.5474 29.7288C45.4006 29.9837 44.1265 30.2385 42.9797 30.3659C40.5588 30.7482 38.2653 31.003 35.8444 31.2578C31.1301 31.7675 26.2883 32.2771 21.5739 32.7868C16.8595 33.2965 12.1451 33.9335 7.43072 34.8255C5.26465 35.2077 3.09858 35.7174 0.932514 36.3544C0.550267 36.4819 0.422852 36.7367 0.422852 37.1189V46.038C0.422852 46.6751 1.05993 47.0574 1.69701 46.8025C3.35341 46.038 7.04847 43.7446 15.3305 41.4511C17.7514 40.814 20.1723 40.1769 22.5932 39.5398C27.435 38.3931 32.2768 37.3738 37.246 36.3544C39.6669 35.8448 42.0878 35.3351 44.5087 34.5706C45.6555 34.1884 46.9296 33.9335 47.9489 33.4239C48.4586 33.1691 49.7328 32.532 50.2424 32.1497C50.2424 32.1497 50.3698 32.0223 50.2424 32.0223V31.8949C50.2424 31.7675 50.2424 31.7675 50.3698 31.7675C53.3004 31.7675 56.3584 31.7675 59.2889 31.8949C62.3469 32.0223 65.4049 32.1497 68.4629 32.4046C69.9919 32.532 71.5209 32.6594 73.0499 32.9142C73.8143 33.0416 74.5788 33.1691 75.3433 33.2965C76.1078 33.4239 76.8723 33.6787 77.6368 33.9335C78.0191 34.061 78.4013 34.1884 78.911 34.5706C79.0384 34.698 79.1658 34.698 79.2932 34.8255C79.2932 34.8255 79.2932 34.9529 79.4206 34.9529C79.4206 34.9529 79.4206 35.0803 79.5481 35.0803L79.6755 35.2077C79.8029 35.4625 79.9303 35.7174 79.9303 35.9722C79.9303 36.227 79.9303 36.6093 79.9303 36.8641C79.8029 37.3738 79.6755 37.6286 79.5481 37.756Z" fill="#CF3339"></path><path d="M51.1322 38.7745C50.3677 39.2842 49.4758 39.6664 48.7113 40.0487C47.0549 40.6858 45.3985 41.3228 43.7421 41.8325C40.4293 42.8518 37.1165 43.8712 33.8037 45.0179C32.1473 45.655 30.6183 46.292 29.0893 47.0565C27.5603 47.821 26.0313 48.5855 24.7572 49.6049C23.3556 50.6242 22.2088 51.7709 21.3169 53.1725C20.8073 53.937 20.425 54.8289 20.2976 55.8482C20.1702 56.2305 20.425 56.7401 20.9347 56.7401C25.7765 57.6321 31.3828 58.3966 37.3713 58.7788C37.7536 58.7788 37.881 58.524 37.7536 58.1417C37.2439 56.7401 36.9891 55.3386 36.9891 53.6822C36.9891 45.1453 54.0628 46.1646 53.0435 40.9406L52.4064 39.0294C58.0127 39.0294 61.7077 42.3422 61.7077 45.0179C61.7077 48.9678 55.4644 48.8404 55.4644 53.6822C55.4644 55.2112 56.7385 56.7401 58.7772 58.3965C59.1594 58.7788 59.7965 58.9062 60.3062 58.9062C66.677 58.524 72.5381 57.7595 77.7621 56.7401C78.1444 56.6127 78.1444 56.1031 77.7621 55.9756C76.8702 55.5934 75.8509 55.3386 74.959 54.9563C72.9203 54.1918 70.8817 53.2999 68.843 52.2806C67.8237 51.7709 66.9318 51.1338 65.9125 50.3694C65.6576 50.1145 65.4028 49.9871 65.2754 49.7323C65.0205 49.4774 64.8931 49.2226 64.7657 48.8404C64.6383 48.713 64.6383 48.4581 64.6383 48.2033C64.6383 48.0759 64.6383 47.9485 64.6383 47.821C64.6383 47.6936 64.6383 47.5662 64.6383 47.5662C64.6383 47.184 64.8931 46.8017 65.0205 46.5469C65.4028 45.9098 65.785 45.5276 66.2947 45.1453C66.677 44.7631 67.0592 44.3808 67.4414 44.126C67.8237 43.7437 68.0785 43.3615 68.2059 42.9792C68.3334 42.7244 68.3334 42.597 68.3334 42.3422V42.2147V42.0873C68.3334 41.9599 68.3334 41.8325 68.3334 41.8325C68.2059 41.068 67.5689 40.3035 66.6769 39.7938C65.785 39.2842 64.8931 38.9019 63.8738 38.5197C61.8352 37.8826 59.6691 37.5004 57.6304 37.2455C55.7192 36.9907 53.6805 36.8633 51.7693 36.8633C51.6419 36.8633 51.5145 36.9907 51.6419 37.1181L51.8967 37.8826C51.8967 38.01 51.8967 38.2649 51.7693 38.3923C51.6419 38.3923 51.3871 38.5197 51.1322 38.7745Z" fill="#F5B335"></path><path d="M55.5968 59.0343C55.979 59.0343 56.1064 58.6521 55.8516 58.3972C54.3226 56.7408 53.5581 55.0844 53.5581 53.6829C53.5581 50.4975 55.979 49.0959 57.7628 47.9492C59.2918 46.9298 60.3111 46.2927 60.3111 45.0186C60.3111 44.1267 59.8015 42.8525 58.5273 41.9606C57.2532 41.0687 55.7242 40.559 54.0678 40.3042L54.1952 40.559V40.6864V40.8139C54.45 42.3429 53.9404 43.617 52.284 44.7638C51.0098 45.5283 49.3534 46.1653 47.4422 46.8024C45.2761 47.5669 43.3648 48.3314 41.7084 49.4781C39.9246 50.6249 39.0327 52.0265 39.0327 53.8103C39.0327 55.5941 39.5424 57.2505 40.4343 58.6521C40.5617 58.9069 40.8165 59.0343 41.0714 59.0343C43.7471 59.1617 46.5502 59.1617 49.3534 59.1617C51.5195 59.1617 53.5581 59.1617 55.5968 59.0343Z" fill="#5BADE5"></path><path d="M92.1619 48.3314C89.1039 47.8218 86.1734 47.1847 83.1154 46.4202C81.5864 46.0379 80.1848 45.6557 78.6558 45.0186C77.8913 44.7638 77.1269 44.3815 76.4898 43.9993C76.1075 43.7445 75.7253 43.4896 75.343 43.2348C75.2156 43.1074 74.9608 42.8525 74.8334 42.7251C74.7059 42.4703 74.5785 42.2155 74.4511 41.9606C74.3237 41.7058 74.3237 41.3236 74.4511 40.9413C74.5785 40.5591 74.7059 40.3042 74.8334 40.0494C75.0882 39.5397 75.4705 39.2849 75.8527 39.0301C76.4898 38.5204 77.1268 38.1382 77.6365 37.6285C77.8913 37.3737 78.1462 37.1188 78.2736 36.9914C78.401 36.7366 78.401 36.6092 78.401 36.4818C77.6365 33.5512 53.8098 33.1689 51.0066 33.1689C50.8792 33.1689 50.8792 33.2964 50.8792 33.2964V33.4238C50.7518 33.5512 50.6244 33.6786 50.497 33.806C49.9873 34.1883 49.3502 34.4431 48.7131 34.8253C47.5664 35.335 46.2922 35.7173 45.1455 36.0995C42.7246 36.864 40.3037 37.3737 37.8828 38.0107C33.041 39.1575 28.1992 40.3042 23.3574 41.451C20.9365 42.088 18.5156 42.7251 16.2221 43.4896C13.9286 44.2541 11.5077 45.0186 9.34166 46.0379C7.30301 46.9299 5.26435 47.9492 3.48053 49.2233C3.09829 49.4782 3.09829 50.1152 3.48053 50.4975C6.15626 52.5361 10.6158 54.4474 16.6044 55.849C16.9866 55.9764 17.4963 55.849 17.7511 55.4667C19.2801 52.0265 20.9365 50.3701 23.8671 48.204C25.396 47.1847 26.925 46.2928 28.5814 45.5283C30.2378 44.7638 31.8942 44.1267 33.5507 43.617C36.8635 42.4703 40.3037 41.5784 43.6165 40.6865C45.2729 40.1768 46.9293 39.6672 48.5857 39.1575C49.3502 38.9027 50.1147 38.5204 50.8792 38.0107C51.2614 37.7559 51.5163 37.5011 51.7711 37.2463C52.0259 36.9914 52.1534 36.7366 52.0259 36.3543L51.8985 35.8447C51.8985 35.7173 51.8985 35.5898 52.0259 35.5898C54.192 35.5898 56.2307 35.7173 58.2693 35.8447C60.4354 36.0995 62.6014 36.3543 64.7675 36.9914C65.7868 37.2463 66.9336 37.7559 67.9529 38.2656C68.4626 38.5204 68.9722 38.9027 69.3545 39.4123C69.7367 39.922 70.119 40.5591 70.2464 41.1961C70.2464 41.3236 70.2464 41.5784 70.2464 41.7058V41.9606V42.2155C70.2464 42.5977 70.119 42.8525 69.9916 43.2348C69.7367 43.8719 69.3545 44.3815 68.9722 44.7638C68.59 45.146 68.0803 45.5283 67.6981 45.9105C67.3158 46.2928 66.9336 46.675 66.8062 46.9299C66.6788 47.0573 66.6788 47.3121 66.6788 47.4395V47.5669C66.6788 47.5669 66.6788 47.5669 66.6788 47.6943V47.8218C66.8062 48.0766 67.1884 48.4588 67.4432 48.8411C68.2077 49.4782 69.0997 49.9878 69.9916 50.4975C71.9028 51.5168 73.9415 52.2813 75.8527 53.0458C77.8913 53.8103 79.93 54.4474 81.9687 55.0845C82.0961 55.0845 82.0961 55.0845 82.2235 55.2119C82.8606 55.4667 83.6251 55.4667 84.2621 55.2119C89.9958 53.6829 94.328 51.6442 96.494 49.4782C96.7489 49.2233 96.6215 48.8411 96.2392 48.8411C94.8376 48.7137 93.4361 48.4588 92.1619 48.3314Z" fill="#EE7623"></path></svg> 